<svg width="23" height="23" viewBox="0 0 23 23" fill="none" xmlns="http://www.w3.org/2000/svg">
<g clip-path="url(#clip0)">
<path d="M15.1402 18.9029C15.1777 18.9092 15.215 18.9122 15.2518 18.9122C15.5752 18.9122 15.8607 18.6786 15.9156 18.349L16.5895 14.3061C16.6507 13.939 16.4027 13.5918 16.0356 13.5306C15.6685 13.4693 15.3213 13.7174 15.2601 14.0845L14.5863 18.1275C14.5251 18.4946 14.7731 18.8418 15.1402 18.9029Z" fill="#153E90"/>
<path d="M7.12928 18.3491C7.18422 18.6786 7.46966 18.9122 7.79314 18.9122C7.82993 18.9122 7.86722 18.9092 7.90473 18.9029C8.27183 18.8418 8.5198 18.4946 8.45861 18.1275L7.78478 14.0845C7.7236 13.7174 7.37649 13.4695 7.00934 13.5306C6.64224 13.5918 6.39427 13.939 6.45546 14.3061L7.12928 18.3491Z" fill="#153E90"/>
<path d="M22.3262 8.13085H19.9547L14.7664 1.64548C14.534 1.35497 14.11 1.30776 13.8193 1.54027C13.5287 1.77274 13.4816 2.19676 13.7141 2.48736L18.2289 8.13085H4.77111L9.28594 2.48736C9.51841 2.19676 9.47128 1.7727 9.18073 1.54027C8.89008 1.30776 8.46607 1.35493 8.23364 1.64548L3.0453 8.13085H0.673828C0.301695 8.13085 0 8.43255 0 8.80468V11.5C0 11.8721 0.301695 12.1738 0.673828 12.1738H1.51324L4.06893 21.1187C4.15155 21.408 4.41596 21.6074 4.7168 21.6074H18.2832C18.584 21.6074 18.8485 21.408 18.9311 21.1187L21.4868 12.1738H22.3262C22.6983 12.1738 23 11.8721 23 11.5V8.80468C23 8.43255 22.6983 8.13085 22.3262 8.13085ZM17.775 20.2598H5.22504L2.9148 12.1738H20.0852L17.775 20.2598ZM21.6523 10.8262C19.344 10.8262 3.53445 10.8262 1.34766 10.8262V9.47851H21.6523V10.8262Z" fill="#153E90"/>
<path d="M11.5 18.9121C11.8721 18.9121 12.1738 18.6104 12.1738 18.2383V14.1953C12.1738 13.8232 11.8721 13.5215 11.5 13.5215C11.1279 13.5215 10.8262 13.8232 10.8262 14.1953V18.2383C10.8262 18.6104 11.1279 18.9121 11.5 18.9121Z" fill="#153E90"/>
</g>
<defs>
<clipPath id="clip0">
<rect width="23" height="23" fill="white"/>
</clipPath>
</defs>
</svg>
