<svg width="23" height="23" viewBox="0 0 23 23" fill="none" xmlns="http://www.w3.org/2000/svg">
<g clip-path="url(#clip0)">
<path d="M22.7554 9.34663L11.853 1.36415C11.6428 1.21024 11.3572 1.21024 11.1471 1.36415L0.244603 9.34663C-0.0216942 9.54163 -0.0795536 9.91556 0.115452 10.1819C0.310458 10.4482 0.684433 10.5059 0.950685 10.311L11.5 2.58696L22.0493 10.311C22.1557 10.3889 22.2793 10.4264 22.4019 10.4264C22.5859 10.4264 22.7674 10.3417 22.8845 10.1818C23.0796 9.91556 23.0217 9.54163 22.7554 9.34663Z" fill="black"/>
<path d="M19.8665 10.4463C19.5365 10.4463 19.2689 10.7138 19.2689 11.0439V20.556H14.4882V15.3637C14.4882 13.716 13.1477 12.3755 11.5 12.3755C9.8524 12.3755 8.51184 13.716 8.51184 15.3637V20.5561H3.73112V11.0439C3.73112 10.7139 3.46352 10.4463 3.13352 10.4463C2.80353 10.4463 2.53593 10.7139 2.53593 11.0439V21.1537C2.53593 21.4838 2.80353 21.7513 3.13352 21.7513H9.10943C9.42371 21.7513 9.68089 21.5085 9.70469 21.2003C9.70613 21.1863 9.70703 21.171 9.70703 21.1537V15.3637C9.70703 14.3751 10.5114 13.5707 11.5 13.5707C12.4887 13.5707 13.2931 14.3751 13.2931 15.3637V21.1537C13.2931 21.1709 13.294 21.1859 13.2954 21.1997C13.3189 21.5082 13.5762 21.7513 13.8906 21.7513H19.8666C20.1966 21.7513 20.4642 21.4838 20.4642 21.1537V11.0439C20.4641 10.7138 20.1966 10.4463 19.8665 10.4463Z" fill="black"/>
</g>
<defs>
<clipPath id="clip0">
<rect width="23" height="23" fill="white"/>
</clipPath>
</defs>
</svg>
