<svg width="33" height="33" viewBox="0 0 33 33" fill="none" xmlns="http://www.w3.org/2000/svg">
<g clip-path="url(#clip0)">
<path d="M20.6248 17.8761C19.8644 17.8761 19.2499 18.4922 19.2499 19.251V24.7511C19.2499 25.5087 18.6338 26.126 17.8747 26.126H13.7498V5.50123C13.7498 4.32699 13.0018 3.27787 11.8771 2.88738L11.47 2.75118H17.8747C18.6338 2.75118 19.2499 3.36851 19.2499 4.12633V8.25128C19.2499 9.01011 19.8644 9.62619 20.6248 9.62619C21.3851 9.62619 21.9997 9.01011 21.9997 8.25128V4.12633C21.9997 1.85211 20.1489 0.00137329 17.8747 0.00137329H3.09372C3.04135 0.00137329 2.99754 0.0247877 2.94669 0.0315854C2.88047 0.0260465 2.81728 0.00137329 2.75005 0.00137329C1.23341 0.00137329 0 1.23453 0 2.75118V27.5009C0 28.6752 0.748001 29.7243 1.87265 30.1148L10.1475 32.8731C10.428 32.9597 10.7069 33.001 11 33.001C12.5166 33.001 13.7498 31.7676 13.7498 30.251V28.8761H17.8747C20.1489 28.8761 21.9997 27.0253 21.9997 24.7511V19.251C21.9997 18.4922 21.3851 17.8761 20.6248 17.8761V17.8761Z" fill="black"/>
<path d="M32.5969 12.7781L27.0967 7.27827C26.7037 6.88501 26.1123 6.76668 25.5982 6.97968C25.0854 7.19293 24.7498 7.6947 24.7498 8.25035V12.3753H19.2499C18.4908 12.3753 17.8748 12.9911 17.8748 13.7502C17.8748 14.5093 18.4908 15.1251 19.2499 15.1251H24.7498V19.2501C24.7498 19.8057 25.0854 20.3075 25.5982 20.5207C26.1123 20.7337 26.7037 20.6154 27.0967 20.2224L32.5969 14.7223C33.1344 14.1848 33.1344 13.3157 32.5969 12.7781V12.7781Z" fill="black"/>
</g>
<defs>
<clipPath id="clip0">
<rect width="33" height="33" fill="white"/>
</clipPath>
</defs>
</svg>
