<svg width="44" height="44" viewBox="0 0 44 44" fill="none" xmlns="http://www.w3.org/2000/svg">
<path d="M18.3047 23.1472C18.1679 23.1472 18.0368 23.2015 17.9401 23.2982C17.8434 23.3949 17.7891 23.5261 17.7891 23.6628V26.0746C17.7891 26.2114 17.8434 26.3425 17.9401 26.4392C18.0368 26.5359 18.1679 26.5903 18.3047 26.5903C18.4414 26.5903 18.5726 26.5359 18.6693 26.4392C18.766 26.3425 18.8203 26.2114 18.8203 26.0746V23.6628C18.8203 23.5261 18.766 23.3949 18.6693 23.2982C18.5726 23.2015 18.4414 23.1472 18.3047 23.1472V23.1472Z" fill="black"/>
<path d="M18.3047 20.9264C18.4414 20.9264 18.5726 20.8721 18.6693 20.7754C18.766 20.6787 18.8203 20.5475 18.8203 20.4108V18.8065C18.8203 18.6697 18.766 18.5386 18.6693 18.4419C18.5726 18.3452 18.4414 18.2909 18.3047 18.2909C18.1679 18.2909 18.0368 18.3452 17.9401 18.4419C17.8434 18.5386 17.7891 18.6697 17.7891 18.8065V20.4108C17.7891 20.5475 17.8434 20.6787 17.9401 20.7754C18.0368 20.8721 18.1679 20.9264 18.3047 20.9264Z" fill="black"/>
<path d="M16.7578 23.1472C16.6211 23.1472 16.4899 23.2015 16.3932 23.2982C16.2965 23.3949 16.2422 23.5261 16.2422 23.6628V27.0842C16.2422 27.2209 16.2965 27.3521 16.3932 27.4487C16.4899 27.5454 16.6211 27.5998 16.7578 27.5998C16.8946 27.5998 17.0257 27.5454 17.1224 27.4487C17.2191 27.3521 17.2734 27.2209 17.2734 27.0842V23.6628C17.2734 23.5261 17.2191 23.3949 17.1224 23.2982C17.0257 23.2015 16.8946 23.1472 16.7578 23.1472V23.1472Z" fill="black"/>
<path d="M16.2422 18.8065V20.4108C16.2422 20.5475 16.2965 20.6787 16.3932 20.7754C16.4899 20.8721 16.6211 20.9264 16.7578 20.9264C16.8946 20.9264 17.0257 20.8721 17.1224 20.7754C17.2191 20.6787 17.2734 20.5475 17.2734 20.4108V18.8065C17.2734 18.6697 17.2191 18.5386 17.1224 18.4419C17.0257 18.3452 16.8946 18.2909 16.7578 18.2909C16.6211 18.2909 16.4899 18.3452 16.3932 18.4419C16.2965 18.5386 16.2422 18.6697 16.2422 18.8065Z" fill="black"/>
<path d="M14.7812 23.6628V25.0651C14.7812 25.2019 14.8356 25.333 14.9323 25.4297C15.029 25.5264 15.1601 25.5808 15.2969 25.5808C15.4336 25.5808 15.5648 25.5264 15.6615 25.4297C15.7582 25.333 15.8125 25.2019 15.8125 25.0651V23.6628C15.8125 23.5261 15.7582 23.3949 15.6615 23.2982C15.5648 23.2015 15.4336 23.1472 15.2969 23.1472C15.1601 23.1472 15.029 23.2015 14.9323 23.2982C14.8356 23.3949 14.7812 23.5261 14.7812 23.6628V23.6628Z" fill="black"/>
<path d="M15.8125 20.4108V18.8065C15.8125 18.6697 15.7582 18.5386 15.6615 18.4419C15.5648 18.3452 15.4336 18.2909 15.2969 18.2909C15.1601 18.2909 15.029 18.3452 14.9323 18.4419C14.8356 18.5386 14.7812 18.6697 14.7812 18.8065V20.4108C14.7812 20.5475 14.8356 20.6787 14.9323 20.7754C15.029 20.8721 15.1601 20.9264 15.2969 20.9264C15.4336 20.9264 15.5648 20.8721 15.6615 20.7754C15.7582 20.6787 15.8125 20.5475 15.8125 20.4108Z" fill="black"/>
<path d="M19.7656 23.1472C19.6289 23.1472 19.4977 23.2015 19.401 23.2982C19.3043 23.3949 19.25 23.5261 19.25 23.6628V27.0842C19.25 27.2209 19.3043 27.3521 19.401 27.4487C19.4977 27.5454 19.6289 27.5998 19.7656 27.5998C19.9024 27.5998 20.0335 27.5454 20.1302 27.4487C20.2269 27.3521 20.2812 27.2209 20.2812 27.0842V23.6628C20.2812 23.5261 20.2269 23.3949 20.1302 23.2982C20.0335 23.2015 19.9024 23.1472 19.7656 23.1472V23.1472Z" fill="black"/>
<path d="M19.7656 20.9264C19.9024 20.9264 20.0335 20.8721 20.1302 20.7754C20.2269 20.6787 20.2812 20.5475 20.2812 20.4108V18.8065C20.2812 18.6697 20.2269 18.5386 20.1302 18.4419C20.0335 18.3452 19.9024 18.2909 19.7656 18.2909C19.6289 18.2909 19.4977 18.3452 19.401 18.4419C19.3043 18.5386 19.25 18.6697 19.25 18.8065V20.4108C19.25 20.5475 19.3043 20.6787 19.401 20.7754C19.4977 20.8721 19.6289 20.9264 19.7656 20.9264V20.9264Z" fill="black"/>
<path d="M21.2266 23.1472C21.0898 23.1472 20.9587 23.2015 20.862 23.2982C20.7653 23.3949 20.7109 23.5261 20.7109 23.6628V26.5794C20.7109 26.7161 20.7653 26.8473 20.862 26.944C20.9587 27.0407 21.0898 27.095 21.2266 27.095C21.3633 27.095 21.4945 27.0407 21.5912 26.944C21.6879 26.8473 21.7422 26.7161 21.7422 26.5794V23.6628C21.7422 23.5261 21.6879 23.3949 21.5912 23.2982C21.4945 23.2015 21.3633 23.1472 21.2266 23.1472V23.1472Z" fill="black"/>
<path d="M21.2266 20.9264C21.3633 20.9264 21.4945 20.8721 21.5912 20.7754C21.6879 20.6787 21.7422 20.5475 21.7422 20.4108V18.8065C21.7422 18.6697 21.6879 18.5386 21.5912 18.4419C21.4945 18.3452 21.3633 18.2909 21.2266 18.2909C21.0898 18.2909 20.9587 18.3452 20.862 18.4419C20.7653 18.5386 20.7109 18.6697 20.7109 18.8065V20.4108C20.7109 20.5475 20.7653 20.6787 20.862 20.7754C20.9587 20.8721 21.0898 20.9264 21.2266 20.9264Z" fill="black"/>
<path d="M22.7734 23.1472C22.6367 23.1472 22.5055 23.2015 22.4088 23.2982C22.3121 23.3949 22.2578 23.5261 22.2578 23.6628V26.5794C22.2578 26.7161 22.3121 26.8473 22.4088 26.944C22.5055 27.0407 22.6367 27.095 22.7734 27.095C22.9102 27.095 23.0413 27.0407 23.138 26.944C23.2347 26.8473 23.2891 26.7161 23.2891 26.5794V23.6628C23.2891 23.5261 23.2347 23.3949 23.138 23.2982C23.0413 23.2015 22.9102 23.1472 22.7734 23.1472V23.1472Z" fill="black"/>
<path d="M22.7734 20.9264C22.9102 20.9264 23.0413 20.8721 23.138 20.7754C23.2347 20.6787 23.2891 20.5475 23.2891 20.4108V18.8065C23.2891 18.6697 23.2347 18.5386 23.138 18.4419C23.0413 18.3452 22.9102 18.2909 22.7734 18.2909C22.6367 18.2909 22.5055 18.3452 22.4088 18.4419C22.3121 18.5386 22.2578 18.6697 22.2578 18.8065V20.4108C22.2578 20.5475 22.3121 20.6787 22.4088 20.7754C22.5055 20.8721 22.6367 20.9264 22.7734 20.9264Z" fill="black"/>
<path d="M24.2344 23.1472C24.0976 23.1472 23.9665 23.2015 23.8698 23.2982C23.7731 23.3949 23.7188 23.5261 23.7188 23.6628V27.0842C23.7188 27.2209 23.7731 27.3521 23.8698 27.4487C23.9665 27.5454 24.0976 27.5998 24.2344 27.5998C24.3711 27.5998 24.5023 27.5454 24.599 27.4487C24.6957 27.3521 24.75 27.2209 24.75 27.0842V23.6628C24.75 23.5261 24.6957 23.3949 24.599 23.2982C24.5023 23.2015 24.3711 23.1472 24.2344 23.1472V23.1472Z" fill="black"/>
<path d="M24.2344 20.9264C24.3711 20.9264 24.5023 20.8721 24.599 20.7754C24.6957 20.6787 24.75 20.5475 24.75 20.4108V18.8065C24.75 18.6697 24.6957 18.5386 24.599 18.4419C24.5023 18.3452 24.3711 18.2909 24.2344 18.2909C24.0976 18.2909 23.9665 18.3452 23.8698 18.4419C23.7731 18.5386 23.7188 18.6697 23.7188 18.8065V20.4108C23.7188 20.5475 23.7731 20.6787 23.8698 20.7754C23.9665 20.8721 24.0976 20.9264 24.2344 20.9264Z" fill="black"/>
<path d="M25.6953 23.1472C25.5586 23.1472 25.4274 23.2015 25.3307 23.2982C25.234 23.3949 25.1797 23.5261 25.1797 23.6628V24.7432C25.1797 24.88 25.234 25.0111 25.3307 25.1078C25.4274 25.2045 25.5586 25.2588 25.6953 25.2588C25.8321 25.2588 25.9632 25.2045 26.0599 25.1078C26.1566 25.0111 26.2109 24.88 26.2109 24.7432V23.6628C26.2109 23.5261 26.1566 23.3949 26.0599 23.2982C25.9632 23.2015 25.8321 23.1472 25.6953 23.1472V23.1472Z" fill="black"/>
<path d="M25.6953 20.9264C25.8321 20.9264 25.9632 20.8721 26.0599 20.7754C26.1566 20.6787 26.2109 20.5475 26.2109 20.4108V18.8065C26.2109 18.6697 26.1566 18.5386 26.0599 18.4419C25.9632 18.3452 25.8321 18.2909 25.6953 18.2909C25.5586 18.2909 25.4274 18.3452 25.3307 18.4419C25.234 18.5386 25.1797 18.6697 25.1797 18.8065V20.4108C25.1797 20.5475 25.234 20.6787 25.3307 20.7754C25.4274 20.8721 25.5586 20.9264 25.6953 20.9264Z" fill="black"/>
<path d="M27.7578 27.0842V23.6628C27.7578 23.5261 27.7035 23.3949 27.6068 23.2982C27.5101 23.2015 27.3789 23.1472 27.2422 23.1472C27.1054 23.1472 26.9743 23.2015 26.8776 23.2982C26.7809 23.3949 26.7266 23.5261 26.7266 23.6628V27.0842C26.7266 27.2209 26.7809 27.3521 26.8776 27.4487C26.9743 27.5454 27.1054 27.5998 27.2422 27.5998C27.3789 27.5998 27.5101 27.5454 27.6068 27.4487C27.7035 27.3521 27.7578 27.2209 27.7578 27.0842V27.0842Z" fill="black"/>
<path d="M27.2422 20.9264C27.3789 20.9264 27.5101 20.8721 27.6068 20.7754C27.7035 20.6787 27.7578 20.5475 27.7578 20.4108V18.8065C27.7578 18.6697 27.7035 18.5386 27.6068 18.4419C27.5101 18.3452 27.3789 18.2909 27.2422 18.2909C27.1054 18.2909 26.9743 18.3452 26.8776 18.4419C26.7809 18.5386 26.7266 18.6697 26.7266 18.8065V20.4108C26.7266 20.5475 26.7809 20.6787 26.8776 20.7754C26.9743 20.8721 27.1054 20.9264 27.2422 20.9264Z" fill="black"/>
<path d="M28.1875 23.6628V26.0746C28.1875 26.2114 28.2418 26.3425 28.3385 26.4392C28.4352 26.5359 28.5664 26.5903 28.7031 26.5903C28.8399 26.5903 28.971 26.5359 29.0677 26.4392C29.1644 26.3425 29.2188 26.2114 29.2188 26.0746V23.6628C29.2188 23.5261 29.1644 23.3949 29.0677 23.2982C28.971 23.2015 28.8399 23.1472 28.7031 23.1472C28.5664 23.1472 28.4352 23.2015 28.3385 23.2982C28.2418 23.3949 28.1875 23.5261 28.1875 23.6628V23.6628Z" fill="black"/>
<path d="M29.2188 20.4108V18.8065C29.2188 18.6697 29.1644 18.5386 29.0677 18.4419C28.971 18.3452 28.8399 18.2909 28.7031 18.2909C28.5664 18.2909 28.4352 18.3452 28.3385 18.4419C28.2418 18.5386 28.1875 18.6697 28.1875 18.8065V20.4108C28.1875 20.5475 28.2418 20.6787 28.3385 20.7754C28.4352 20.8721 28.5664 20.9264 28.7031 20.9264C28.8399 20.9264 28.971 20.8721 29.0677 20.7754C29.1644 20.6787 29.2188 20.5475 29.2188 20.4108Z" fill="black"/>
<path d="M13.2344 19.7237C13.3711 19.7237 13.5023 19.6694 13.599 19.5727C13.6957 19.476 13.75 19.3448 13.75 19.2081V17.1016H15.9218C16.0586 17.1016 16.1897 17.0472 16.2864 16.9505C16.3831 16.8538 16.4374 16.7227 16.4374 16.5859C16.4374 16.4492 16.3831 16.318 16.2864 16.2213C16.1897 16.1246 16.0586 16.0703 15.9218 16.0703H13.2577C12.973 16.0703 12.7185 16.2594 12.7185 16.5443V19.2083C12.7185 19.276 12.7319 19.3431 12.7578 19.4056C12.7838 19.4682 12.8218 19.525 12.8697 19.5728C12.9176 19.6207 12.9745 19.6587 13.037 19.6845C13.0996 19.7104 13.1667 19.7237 13.2344 19.7237V19.7237Z" fill="black"/>
<path d="M30.742 16.0703H28.0779C27.9412 16.0703 27.81 16.1246 27.7133 16.2213C27.6166 16.318 27.5623 16.4492 27.5623 16.5859C27.5623 16.7227 27.6166 16.8538 27.7133 16.9505C27.81 17.0472 27.9412 17.1016 28.0779 17.1016H30.25V19.2081C30.25 19.3448 30.3043 19.476 30.401 19.5727C30.4977 19.6694 30.6289 19.7237 30.7656 19.7237C30.9024 19.7237 31.0335 19.6694 31.1302 19.5727C31.2269 19.476 31.2812 19.3448 31.2812 19.2081V16.544C31.2812 16.2594 31.0267 16.0703 30.742 16.0703Z" fill="black"/>
<path d="M30.7656 26.1669C30.6289 26.1669 30.4977 26.2213 30.401 26.318C30.3043 26.4147 30.25 26.5458 30.25 26.6826V28.7891H28.0782C27.9414 28.7891 27.8103 28.8434 27.7136 28.9401C27.6169 29.0368 27.5626 29.1679 27.5626 29.3047C27.5626 29.4414 27.6169 29.5726 27.7136 29.6693C27.8103 29.766 27.9414 29.8203 28.0782 29.8203H30.7423C31.027 29.8203 31.2815 29.6312 31.2815 29.3464V26.6823C31.2815 26.6146 31.2681 26.5475 31.2422 26.485C31.2162 26.4225 31.1782 26.3656 31.1303 26.3178C31.0824 26.2699 31.0255 26.232 30.963 26.2061C30.9004 26.1802 30.8333 26.1669 30.7656 26.1669Z" fill="black"/>
<path d="M15.9218 28.7891H13.75V26.6826C13.75 26.5458 13.6957 26.4147 13.599 26.318C13.5023 26.2213 13.3711 26.1669 13.2344 26.1669C13.0976 26.1669 12.9665 26.2213 12.8698 26.318C12.7731 26.4147 12.7188 26.5458 12.7188 26.6826V29.3466C12.7188 29.6314 12.9733 29.8206 13.258 29.8206H15.9221C16.0588 29.8206 16.19 29.7662 16.2867 29.6695C16.3834 29.5728 16.4377 29.4417 16.4377 29.3049C16.4377 29.1682 16.3834 29.037 16.2867 28.9403C16.19 28.8436 16.0588 28.7893 15.9221 28.7893L15.9218 28.7891Z" fill="black"/>
<path d="M13.9022 22C13.9022 22.1368 13.9565 22.2679 14.0532 22.3646C14.1499 22.4613 14.2811 22.5156 14.4178 22.5156H29.4962C29.633 22.5156 29.7641 22.4613 29.8608 22.3646C29.9575 22.2679 30.0119 22.1368 30.0119 22C30.0119 21.8632 29.9575 21.7321 29.8608 21.6354C29.7641 21.5387 29.633 21.4844 29.4962 21.4844H14.4178C14.2811 21.4844 14.1499 21.5387 14.0532 21.6354C13.9565 21.7321 13.9022 21.8632 13.9022 22Z" fill="black"/>
<path d="M14.2656 42.3672H29.7344C30.6916 42.3672 31.6097 41.9869 32.2866 41.31C32.9635 40.6331 33.3438 39.7151 33.3438 38.7578V5.32812C33.3438 4.37086 32.9635 3.4528 32.2866 2.77591C31.6097 2.09902 30.6916 1.71875 29.7344 1.71875H14.2656C13.3084 1.71875 12.3903 2.09902 11.7134 2.77591C11.0365 3.4528 10.6563 4.37086 10.6562 5.32812V38.7578C10.6562 39.7151 11.0365 40.6331 11.7134 41.31C12.3903 41.9869 13.3084 42.3672 14.2656 42.3672V42.3672ZM11.6875 8.16406H26.4142C26.5509 8.16406 26.6821 8.10974 26.7788 8.01304C26.8755 7.91634 26.9298 7.78519 26.9298 7.64844C26.9298 7.51169 26.8755 7.38053 26.7788 7.28384C26.6821 7.18714 26.5509 7.13281 26.4142 7.13281H11.6875V5.29573C11.6875 3.87415 12.8619 2.75 14.2835 2.75H29.7165C31.1381 2.75 32.3125 3.87415 32.3125 5.29573V7.13281H31.0085C30.8717 7.13281 30.7406 7.18714 30.6439 7.28384C30.5472 7.38053 30.4929 7.51169 30.4929 7.64844C30.4929 7.78519 30.5472 7.91634 30.6439 8.01304C30.7406 8.10974 30.8717 8.16406 31.0085 8.16406H32.3125V34.8047H11.6875V8.16406ZM11.6875 35.8359H32.3125V38.7043C32.3125 40.1259 31.1381 41.25 29.7165 41.25H14.2835C12.8619 41.25 11.6875 40.1259 11.6875 38.7043V35.8359Z" fill="black"/>
<path d="M28.1884 8.16406H29.1897C29.3264 8.16406 29.4576 8.10974 29.5543 8.01304C29.651 7.91634 29.7053 7.78519 29.7053 7.64844C29.7053 7.51169 29.651 7.38053 29.5543 7.28384C29.4576 7.18714 29.3264 7.13281 29.1897 7.13281H28.1884C28.0516 7.13281 27.9205 7.18714 27.8238 7.28384C27.7271 7.38053 27.6727 7.51169 27.6727 7.64844C27.6727 7.78519 27.7271 7.91634 27.8238 8.01304C27.9205 8.10974 28.0516 8.16406 28.1884 8.16406Z" fill="black"/>
<path d="M22 40.4218C22.3692 40.4218 22.7302 40.3123 23.0372 40.1072C23.3442 39.9021 23.5835 39.6105 23.7248 39.2693C23.8661 38.9282 23.9031 38.5528 23.831 38.1907C23.759 37.8285 23.5812 37.4959 23.3201 37.2348C23.059 36.9737 22.7263 36.7959 22.3642 36.7239C22.002 36.6519 21.6266 36.6888 21.2855 36.8302C20.9444 36.9715 20.6528 37.2108 20.4477 37.5178C20.2425 37.8248 20.1331 38.1858 20.1331 38.555C20.1337 39.05 20.3305 39.5245 20.6805 39.8745C21.0305 40.2244 21.505 40.4213 22 40.4218ZM22 37.7194C22.1653 37.7194 22.3268 37.7684 22.4643 37.8602C22.6017 37.952 22.7088 38.0825 22.772 38.2352C22.8353 38.3879 22.8518 38.5559 22.8196 38.718C22.7873 38.8801 22.7078 39.029 22.5909 39.1459C22.474 39.2628 22.3251 39.3424 22.163 39.3746C22.0009 39.4069 21.8329 39.3903 21.6802 39.3271C21.5275 39.2638 21.397 39.1567 21.3052 39.0193C21.2133 38.8819 21.1643 38.7203 21.1643 38.555C21.1646 38.3335 21.2527 38.1211 21.4094 37.9644C21.566 37.8077 21.7784 37.7196 22 37.7194V37.7194Z" fill="black"/>
<path d="M13.4922 10.1743C13.6289 10.1743 13.7601 10.12 13.8568 10.0233C13.9535 9.92659 14.0078 9.79544 14.0078 9.65868V9.28915C14.0078 9.1524 13.9535 9.02125 13.8568 8.92455C13.7601 8.82785 13.6289 8.77353 13.4922 8.77353C13.3554 8.77353 13.2243 8.82785 13.1276 8.92455C13.0309 9.02125 12.9766 9.1524 12.9766 9.28915V9.65868C12.9766 9.79544 13.0309 9.92659 13.1276 10.0233C13.2243 10.12 13.3554 10.1743 13.4922 10.1743Z" fill="black"/>
<path d="M13.4922 15.0727C13.6289 15.0727 13.7601 15.0184 13.8568 14.9217C13.9535 14.825 14.0078 14.6939 14.0078 14.5571V11.2915C14.0078 11.1547 13.9535 11.0236 13.8568 10.9269C13.7601 10.8302 13.6289 10.7759 13.4922 10.7759C13.3554 10.7759 13.2243 10.8302 13.1276 10.9269C13.0309 11.0236 12.9766 11.1547 12.9766 11.2915V14.5571C12.9766 14.6939 13.0309 14.825 13.1276 14.9217C13.2243 15.0184 13.3554 15.0727 13.4922 15.0727Z" fill="black"/>
</svg>
