<svg width="21" height="22" viewBox="0 0 21 22" fill="none" xmlns="http://www.w3.org/2000/svg">
<path d="M10.4239 11.8542C10.4456 11.8542 10.4674 11.8542 10.4935 11.8542C10.5022 11.8542 10.5109 11.8542 10.5196 11.8542C10.5326 11.8542 10.55 11.8542 10.5631 11.8542C11.8372 11.8314 12.8679 11.3622 13.6289 10.4647C15.3032 8.48747 15.0248 5.09795 14.9944 4.77449C14.8857 2.34624 13.7898 1.18451 12.8853 0.642369C12.2112 0.236902 11.4241 0.0182232 10.5457 0H10.5152C10.5109 0 10.5022 0 10.4978 0H10.4717C9.98902 0 9.041 0.0820046 8.13212 0.624146C7.21888 1.16629 6.10561 2.32802 5.99689 4.77449C5.96645 5.09795 5.68813 8.48747 7.36239 10.4647C8.11907 11.3622 9.14972 11.8314 10.4239 11.8542ZM7.158 4.88838C7.158 4.87472 7.16235 4.86105 7.16235 4.85194C7.30586 1.58542 9.51936 1.23462 10.4674 1.23462H10.4848C10.4935 1.23462 10.5065 1.23462 10.5196 1.23462C11.6937 1.26196 13.6898 1.7631 13.8246 4.85194C13.8246 4.8656 13.8246 4.87927 13.8289 4.88838C13.8333 4.92027 14.1377 8.01822 12.7548 9.6492C12.2069 10.2961 11.4763 10.615 10.5152 10.6241C10.5065 10.6241 10.5022 10.6241 10.4935 10.6241C10.4848 10.6241 10.4804 10.6241 10.4717 10.6241C9.51501 10.615 8.78008 10.2961 8.23649 9.6492C6.85794 8.02734 7.15365 4.91572 7.158 4.88838Z" fill="#153E90"/>
<path d="M19.4301 17.4761C19.4301 17.4715 19.4301 17.467 19.4301 17.4624C19.4301 17.426 19.4258 17.3895 19.4258 17.3485C19.3997 16.4465 19.3431 14.3371 17.4558 13.6629C17.4427 13.6583 17.4254 13.6538 17.4123 13.6492C15.451 13.1253 13.8203 11.9408 13.8029 11.9271C13.5376 11.7312 13.1723 11.7995 12.9853 12.0775C12.7983 12.3554 12.8635 12.738 13.1288 12.9339C13.2027 12.9886 14.9335 14.2506 17.0992 14.8337C18.1124 15.2118 18.2255 16.3462 18.256 17.385C18.256 17.426 18.256 17.4624 18.2603 17.4989C18.2647 17.9089 18.2386 18.5421 18.169 18.9066C17.4645 19.3257 14.703 20.7745 10.5022 20.7745C6.3187 20.7745 3.53987 19.3212 2.83102 18.9021C2.76144 18.5376 2.731 17.9043 2.7397 17.4943C2.7397 17.4579 2.74405 17.4214 2.74405 17.3804C2.77449 16.3417 2.88756 15.2073 3.90081 14.8292C6.06648 14.246 7.79727 12.9795 7.8712 12.9294C8.13647 12.7335 8.2017 12.3508 8.01471 12.0729C7.82771 11.795 7.46242 11.7267 7.19715 11.9226C7.17975 11.9362 5.55768 13.1207 3.5877 13.6447C3.57031 13.6492 3.55726 13.6538 3.54422 13.6583C1.65687 14.3371 1.60034 16.4465 1.57424 17.344C1.57424 17.385 1.57424 17.4214 1.56989 17.4579C1.56989 17.4624 1.56989 17.467 1.56989 17.4715C1.56555 17.7084 1.5612 18.9248 1.79168 19.5353C1.83517 19.6538 1.91344 19.754 2.01781 19.8223C2.14827 19.9134 5.27501 22 10.5065 22C15.738 22 18.8648 19.9089 18.9952 19.8223C19.0953 19.754 19.1779 19.6538 19.2214 19.5353C19.4388 18.9294 19.4345 17.713 19.4301 17.4761Z" fill="#153E90"/>
</svg>
