<svg width="33" height="33" viewBox="0 0 33 33" fill="none" xmlns="http://www.w3.org/2000/svg">
<path d="M29.4332 33H24.8145C24.2805 33 23.8477 32.5671 23.8477 32.0332C23.8477 31.4993 24.2805 31.0664 24.8145 31.0664H29.4332C30.3337 31.0664 31.0664 30.3337 31.0664 29.4331V24.8145C31.0664 24.2805 31.4993 23.8477 32.0332 23.8477C32.5671 23.8477 33 24.2805 33 24.8145V29.4331C33 31.3999 31.3999 33 29.4332 33V33Z" fill="black"/>
<path d="M0.966797 23.8477C1.50073 23.8477 1.93359 24.2805 1.93359 24.8145V29.4331C1.93359 30.3337 2.6663 31.0664 3.56684 31.0664H8.18555C8.71948 31.0664 9.15234 31.4993 9.15234 32.0332C9.15234 32.5671 8.71948 33 8.18555 33H3.56684C1.60011 33 0 31.3999 0 29.4331V24.8145C0 24.2805 0.432867 23.8477 0.966797 23.8477Z" fill="black"/>
<path d="M8.18555 1.93359H3.56684C2.6663 1.93359 1.93359 2.6663 1.93359 3.5669V8.18555C1.93359 8.71948 1.50073 9.15234 0.966797 9.15234C0.432867 9.15234 0 8.71948 0 8.18555V3.5669C0 1.60011 1.60011 0 3.56684 0H8.18555C8.71948 0 9.15234 0.432867 9.15234 0.966797C9.15234 1.50073 8.71948 1.93359 8.18555 1.93359Z" fill="black"/>
<path d="M32.0332 9.15234C31.4993 9.15234 31.0664 8.71948 31.0664 8.18555V3.5669C31.0664 2.6663 30.3337 1.93359 29.4332 1.93359H24.8145C24.2805 1.93359 23.8477 1.50073 23.8477 0.966797C23.8477 0.432867 24.2805 0 24.8145 0H29.4332C31.4 0 33 1.60011 33 3.5669V8.18555C33 8.71948 32.5671 9.15234 32.0332 9.15234Z" fill="black"/>
<path d="M22.02 25.9102H25.0863C25.5051 25.9102 25.8457 25.5695 25.8457 25.1508V22.0845C25.8457 21.5505 26.2786 21.1177 26.8125 21.1177C27.3464 21.1177 27.7793 21.5505 27.7793 22.0845V25.1508C27.7793 26.6357 26.5712 27.8438 25.0863 27.8438H22.02C21.486 27.8438 21.0532 27.4109 21.0532 26.877C21.0532 26.343 21.486 25.9102 22.02 25.9102Z" fill="black"/>
<path d="M5.2207 25.1508V22.0845C5.2207 21.5505 5.65357 21.1177 6.1875 21.1177C6.72143 21.1177 7.1543 21.5505 7.1543 22.0845V25.1508C7.1543 25.5695 7.495 25.9102 7.91368 25.9102H10.98C11.514 25.9102 11.9468 26.343 11.9468 26.877C11.9468 27.4109 11.514 27.8438 10.98 27.8438H7.91368C6.42881 27.8438 5.2207 26.6357 5.2207 25.1508Z" fill="black"/>
<path d="M10.98 7.21876H7.91368C7.49493 7.21876 7.1543 7.55939 7.1543 7.97814V11.0444C7.1543 11.5784 6.72143 12.0112 6.1875 12.0112C5.65357 12.0112 5.2207 11.5784 5.2207 11.0444V7.97814C5.2207 6.49321 6.42881 5.28516 7.91368 5.28516H10.98C11.514 5.28516 11.9468 5.71803 11.9468 6.25196C11.9468 6.78589 11.514 7.21876 10.98 7.21876Z" fill="black"/>
<path d="M27.7793 7.97814V11.0444C27.7793 11.5784 27.3464 12.0112 26.8125 12.0112C26.2786 12.0112 25.8457 11.5784 25.8457 11.0444V7.97814C25.8457 7.55939 25.505 7.21876 25.0863 7.21876H22.02C21.486 7.21876 21.0532 6.78589 21.0532 6.25196C21.0532 5.71803 21.486 5.28516 22.02 5.28516H25.0863C26.5712 5.28516 27.7793 6.49321 27.7793 7.97814Z" fill="black"/>
<path d="M0.0644531 16.5C0.0644531 15.9661 0.49732 15.5332 1.03125 15.5332H31.9688C32.5027 15.5332 32.9355 15.9661 32.9355 16.5C32.9355 17.0339 32.5027 17.4668 31.9688 17.4668H1.03125C0.49732 17.4668 0.0644531 17.0339 0.0644531 16.5Z" fill="black"/>
</svg>
