<svg width="23" height="23" viewBox="0 0 23 23" fill="none" xmlns="http://www.w3.org/2000/svg">
<path d="M22.177 4.77609L18.2239 0.822969C18.1554 0.756773 18.064 0.71946 17.9687 0.71875H8.98437C8.6987 0.719603 8.42497 0.833465 8.22297 1.03547C8.02096 1.23747 7.9071 1.5112 7.90625 1.79688V3.97109C5.97049 4.06183 4.14405 4.89467 2.80621 6.29668C1.46838 7.69868 0.721965 9.56211 0.721965 11.5C0.721965 13.4379 1.46838 15.3013 2.80621 16.7033C4.14405 18.1053 5.97049 18.9382 7.90625 19.0289V21.2031C7.9071 21.4888 8.02096 21.7625 8.22297 21.9645C8.42497 22.1665 8.6987 22.2804 8.98437 22.2812H21.2031C21.4888 22.2804 21.7625 22.1665 21.9645 21.9645C22.1665 21.7625 22.2804 21.4888 22.2812 21.2031V5.03125C22.2805 4.93598 22.2432 4.84462 22.177 4.77609V4.77609ZM18.3281 1.94422L21.0558 4.67188H18.6875C18.5922 4.67188 18.5008 4.63401 18.4334 4.56662C18.366 4.49922 18.3281 4.40781 18.3281 4.3125V1.94422ZM1.4375 11.5C1.43984 9.7521 2.11159 8.07149 3.3147 6.80355C4.51781 5.53561 6.16088 4.77665 7.90625 4.68266V11.3527L3.19844 16.0605C2.06515 14.8119 1.43739 13.1862 1.4375 11.5V11.5ZM3.70515 16.5672L8.41297 11.8594H15.083C15.0175 13.1471 14.5881 14.3898 13.8445 15.4432C13.101 16.4966 12.0739 17.3175 10.8825 17.8105C9.69105 18.3034 8.38423 18.4483 7.11376 18.2282C5.8433 18.0082 4.66134 17.4322 3.70515 16.5672V16.5672ZM21.5625 21.2031C21.5625 21.2984 21.5246 21.3898 21.4572 21.4572C21.3898 21.5246 21.2984 21.5625 21.2031 21.5625H8.98437C8.88906 21.5625 8.79765 21.5246 8.73026 21.4572C8.66286 21.3898 8.625 21.2984 8.625 21.2031V19.0289C10.5601 18.9354 12.3852 18.1018 13.723 16.7005C15.0608 15.2992 15.8089 13.4373 15.8125 11.5C15.8125 11.4047 15.7746 11.3133 15.7072 11.2459C15.6398 11.1785 15.5484 11.1406 15.4531 11.1406H8.625V1.79688C8.625 1.70156 8.66286 1.61015 8.73026 1.54276C8.79765 1.47536 8.88906 1.4375 8.98437 1.4375H17.6094V4.3125C17.6102 4.59817 17.7241 4.8719 17.9261 5.07391C18.1281 5.27591 18.4018 5.38977 18.6875 5.39062H21.5625V21.2031Z" fill="#153E90"/>
<path d="M9.70312 2.51562C9.60781 2.51562 9.5164 2.55349 9.44901 2.62088C9.38161 2.68828 9.34375 2.77969 9.34375 2.875V10.0625C9.34375 10.1578 9.38161 10.2492 9.44901 10.3166C9.5164 10.384 9.60781 10.4219 9.70312 10.4219H16.8906C16.9859 10.4219 17.0773 10.384 17.1447 10.3166C17.2121 10.2492 17.25 10.1578 17.25 10.0625C17.2478 8.06162 16.452 6.14331 15.0372 4.72847C13.6223 3.31363 11.704 2.51781 9.70312 2.51562V2.51562ZM10.0625 9.70312V3.24516C11.7459 3.33555 13.3365 4.04496 14.5286 5.23703C15.7207 6.4291 16.4301 8.01971 16.5205 9.70312H10.0625Z" fill="#153E90"/>
<path d="M17.6094 14.375C16.9697 14.375 16.3443 14.5647 15.8125 14.9201C15.2806 15.2755 14.866 15.7806 14.6212 16.3716C14.3764 16.9626 14.3123 17.613 14.4371 18.2404C14.5619 18.8678 14.87 19.4441 15.3223 19.8964C15.7747 20.3488 16.351 20.6568 16.9784 20.7816C17.6058 20.9064 18.2561 20.8424 18.8471 20.5975C19.4381 20.3527 19.9433 19.9382 20.2987 19.4063C20.6541 18.8744 20.8438 18.2491 20.8438 17.6094C20.8424 16.752 20.5012 15.9301 19.895 15.3238C19.2887 14.7175 18.4668 14.3763 17.6094 14.375V14.375ZM17.6094 20.125C17.1118 20.125 16.6255 19.9775 16.2118 19.701C15.7981 19.4246 15.4756 19.0317 15.2852 18.5721C15.0948 18.1124 15.045 17.6066 15.1421 17.1186C15.2392 16.6306 15.4787 16.1824 15.8306 15.8306C16.1824 15.4787 16.6306 15.2392 17.1186 15.1421C17.6066 15.045 18.1124 15.0948 18.5721 15.2852C19.0317 15.4756 19.4246 15.7981 19.701 16.2118C19.9775 16.6255 20.125 17.1118 20.125 17.6094C20.1242 18.2763 19.859 18.9157 19.3874 19.3874C18.9157 19.859 18.2763 20.1242 17.6094 20.125V20.125Z" fill="#153E90"/>
<path d="M16.8906 18.1793L16.0666 17.3553L15.5584 17.8634L16.6365 18.9416C16.7039 19.0089 16.7953 19.0468 16.8906 19.0468C16.9859 19.0468 17.0773 19.0089 17.1447 18.9416L19.301 16.7853L18.7928 16.2772L16.8906 18.1793Z" fill="#153E90"/>
<path d="M17.9687 6.82812H20.8437V7.54688H17.9687V6.82812Z" fill="#153E90"/>
<path d="M17.9687 8.98438H20.8437V9.70312H17.9687V8.98438Z" fill="#153E90"/>
<path d="M17.9687 11.1406H20.8437V11.8594H17.9687V11.1406Z" fill="#153E90"/>
</svg>
