<svg width="43" height="43" viewBox="0 0 43 43" fill="none" xmlns="http://www.w3.org/2000/svg">
<path d="M21.5 0C9.6449 0 0 9.6449 0 21.5C0 26.6922 1.85043 31.4602 4.92637 35.1797C4.93425 35.1905 4.93497 35.2041 4.94357 35.2141C7.16452 37.8923 9.95378 39.9456 13.062 41.2721C13.0978 41.2872 13.1329 41.3036 13.1687 41.3187C13.4203 41.4248 13.6747 41.5229 13.9298 41.619C14.0302 41.657 14.1305 41.6957 14.2323 41.7322C14.4523 41.811 14.6737 41.8856 14.8966 41.9572C15.0392 42.0031 15.1819 42.0483 15.3259 42.0913C15.523 42.15 15.7208 42.2066 15.92 42.2604C16.0949 42.3077 16.2712 42.3514 16.4475 42.3937C16.6259 42.4367 16.8051 42.4797 16.985 42.5177C17.1857 42.5607 17.3885 42.5987 17.592 42.6359C17.7554 42.666 17.9181 42.6976 18.0829 42.7241C18.3087 42.7606 18.5359 42.7893 18.7638 42.8187C18.9107 42.8373 19.0569 42.8588 19.2045 42.8746C19.4625 42.9018 19.7227 42.9212 19.9835 42.9391C20.1046 42.9477 20.225 42.9606 20.3469 42.967C20.7274 42.9885 21.1123 43 21.5 43C21.8877 43 22.2726 42.9885 22.6545 42.9685C22.7764 42.962 22.8968 42.9491 23.0179 42.9405C23.2788 42.9219 23.5389 42.9032 23.7969 42.876C23.9446 42.8602 24.0907 42.8387 24.2377 42.8201C24.4656 42.7907 24.6927 42.7621 24.9185 42.7255C25.0826 42.699 25.246 42.6675 25.4094 42.6374C25.6122 42.6001 25.815 42.5621 26.0164 42.5191C26.1963 42.4804 26.3748 42.4381 26.5539 42.3951C26.7302 42.3521 26.9065 42.3084 27.0814 42.2618C27.2806 42.2088 27.4784 42.1515 27.6755 42.0927C27.8196 42.0497 27.9622 42.0045 28.1048 41.9587C28.3277 41.887 28.5491 41.8125 28.7691 41.7336C28.8702 41.6971 28.9705 41.6584 29.0716 41.6204C29.3274 41.5244 29.5811 41.4255 29.8327 41.3201C29.8685 41.3051 29.9036 41.2886 29.9395 41.2735C33.0469 39.947 35.8369 37.8937 38.0579 35.2156C38.0665 35.2055 38.0672 35.1912 38.0751 35.1812C41.1496 31.4602 43 26.6922 43 21.5C43 9.6449 33.3551 0 21.5 0ZM30.2125 39.5743C30.2018 39.5793 30.1917 39.5851 30.181 39.5901C29.9251 39.7134 29.665 39.8295 29.4027 39.9427C29.3432 39.9678 29.2844 39.9936 29.2249 40.0187C28.9956 40.1147 28.7634 40.2057 28.5298 40.2931C28.4323 40.3297 28.3348 40.3655 28.2367 40.3999C28.0296 40.4737 27.8217 40.5447 27.6117 40.6121C27.4813 40.6536 27.3501 40.693 27.219 40.7317C27.0327 40.7876 26.8456 40.8414 26.6564 40.8916C26.4973 40.9338 26.3368 40.9725 26.1763 41.0105C26.0078 41.0507 25.8401 41.0915 25.6703 41.1273C25.4847 41.1668 25.2976 41.2004 25.1113 41.2341C24.9601 41.2621 24.8096 41.2915 24.6569 41.3158C24.4469 41.3488 24.2348 41.3753 24.0234 41.4018C23.8894 41.419 23.7561 41.4391 23.6206 41.4534C23.3791 41.4792 23.1354 41.4957 22.8925 41.5129C22.7843 41.5201 22.6768 41.5323 22.5671 41.538C22.2124 41.5566 21.8569 41.5667 21.5 41.5667C21.1431 41.5667 20.7876 41.5566 20.4336 41.538C20.3247 41.5323 20.2172 41.5208 20.1082 41.5129C19.8646 41.4964 19.6216 41.4792 19.3801 41.4534C19.2446 41.4391 19.1113 41.419 18.9773 41.4018C18.7659 41.3753 18.5538 41.3488 18.3438 41.3158C18.1911 41.2915 18.0406 41.2621 17.8894 41.2341C17.7024 41.2004 17.5153 41.166 17.3304 41.1273C17.1606 41.0915 16.9922 41.0507 16.8245 41.0105C16.6639 40.9718 16.5034 40.9338 16.3443 40.8916C16.1558 40.8414 15.968 40.7869 15.7817 40.7317C15.6506 40.693 15.5194 40.6536 15.389 40.6121C15.179 40.5447 14.9704 40.4737 14.764 40.3999C14.6659 40.3648 14.5684 40.329 14.4709 40.2931C14.2373 40.2057 14.0051 40.1147 13.7758 40.0187C13.7163 39.9943 13.6582 39.9685 13.5987 39.9434C13.3364 39.8309 13.0763 39.7141 12.8197 39.5908C12.809 39.5858 12.7989 39.5808 12.7882 39.575C10.2877 38.3653 8.07898 36.6482 6.2866 34.5627C7.67192 29.4614 11.5935 25.3492 16.6388 23.7131C16.7385 23.774 16.8424 23.8284 16.9449 23.8858C17.0051 23.9195 17.0645 23.9553 17.1255 23.9875C17.339 24.1008 17.5555 24.2068 17.7769 24.3022C17.9468 24.3767 18.1223 24.4398 18.2972 24.5043C18.3316 24.5165 18.366 24.5301 18.4004 24.5422C19.3722 24.8862 20.4121 25.0833 21.5 25.0833C22.5879 25.0833 23.6278 24.8862 24.5989 24.5422C24.6333 24.5301 24.6677 24.5165 24.7021 24.5043C24.8769 24.4398 25.0525 24.3767 25.2224 24.3022C25.4438 24.2068 25.6602 24.1008 25.8738 23.9875C25.9347 23.9546 25.9942 23.9195 26.0544 23.8858C26.1569 23.8284 26.2615 23.774 26.3619 23.7124C31.4072 25.3492 35.3281 29.4615 36.7141 34.562C34.9217 36.6467 32.713 38.3639 30.2125 39.5743ZM13.6167 15.7667C13.6167 11.4201 17.1534 7.88333 21.5 7.88333C25.8466 7.88333 29.3833 11.4201 29.3833 15.7667C29.3833 18.5316 27.9493 20.9646 25.7885 22.3722C25.5062 22.5556 25.2123 22.7198 24.9106 22.8631C24.8748 22.8803 24.8397 22.8982 24.8038 22.9147C22.7284 23.8585 20.2716 23.8585 18.1962 22.9147C18.1603 22.8982 18.1245 22.8803 18.0894 22.8631C17.7869 22.7198 17.4938 22.5556 17.2115 22.3722C15.0507 20.9646 13.6167 18.5316 13.6167 15.7667ZM37.7891 33.1982C36.1644 28.4008 32.4578 24.5236 27.7221 22.6818C29.6162 20.9754 30.8167 18.5115 30.8167 15.7667C30.8167 10.6296 26.6371 6.45 21.5 6.45C16.3629 6.45 12.1833 10.6296 12.1833 15.7667C12.1833 18.5115 13.3837 20.9754 15.2786 22.6818C10.5429 24.5243 6.83628 28.4008 5.2116 33.1982C2.83728 29.9022 1.43333 25.8631 1.43333 21.5C1.43333 10.4354 10.4354 1.43333 21.5 1.43333C32.5646 1.43333 41.5667 10.4354 41.5667 21.5C41.5667 25.8631 40.1627 29.9022 37.7891 33.1982Z" fill="white"/>
</svg>
